# Made in Blockbench 5.1.4
mtllib grapping_hook_pull.mtl

o Right
v -1.0125 2.1375 -0.2625
v -0.4875 2.1375 -0.2625
v -0.4875000000000001 1.4874999999999998 -0.2625
v -1.0125 1.4874999999999998 -0.2625
v -1.0125 2.1375 0.2625
v -1.0125 1.4874999999999998 0.2625
v -0.4875 2.1375 0.2625
v -0.4875000000000001 1.4874999999999998 0.2625
v -1.0375 2.1426587123677394 -0.3084250201632928
v -0.4624999999999999 2.1426587123677394 -0.3084250201632928
v -0.4624999999999999 1.9837097272484963 -0.2746393704054069
v -1.0375 1.9837097272484965 -0.2746393704054069
v -1.0375 2.3037902727515034 0.44963937040540664
v -1.0375 2.1448412876322602 0.48342502016329253
v -0.4624999999999999 2.3037902727515034 0.44963937040540664
v -0.4624999999999999 2.1448412876322602 0.48342502016329253
v -1.05 2.2051728950965788 -0.31424734419891615
v -0.44999999999999996 2.2051728950965788 -0.31424734419891615
v -0.44999999999999996 2.0435630870992347 -0.33123321947990975
v -1.05 2.0435630870992347 -0.33123321947990975
v -1.05 2.1215501244824564 0.4813701720957026
v -1.05 1.9599403164851121 0.464384296814709
v -0.44999999999999996 2.1215501244824564 0.4813701720957026
v -0.44999999999999996 1.9599403164851121 0.464384296814709
v -1.025 2.225 -0.275
v -0.47500000000000003 2.225 -0.275
v -0.4750000000000001 1.9375 -0.275
v -1.025 1.9375 -0.275
v -1.025 2.225 0.275
v -1.025 1.9375 0.275
v -0.47500000000000003 2.225 0.275
v -0.4750000000000001 1.9375 0.275
v -1.0712118931910075 1.6930196949550198 -0.2812499999999999
v -0.8538785822759671 1.751253980103087 -0.2812499999999999
v -0.7794681068089926 1.4735503050449803 -0.2812499999999999
v -0.996801417724033 1.4153160198969132 -0.2812499999999999
v -1.0712118931910075 1.6930196949550198 0.28124999999999994
v -0.996801417724033 1.4153160198969132 0.28124999999999994
v -0.8538785822759671 1.751253980103087 0.28124999999999994
v -0.7794681068089926 1.4735503050449803 0.28124999999999994
v -1.0712118931910075 1.8055196949550198 -0.2749999999999999
v -0.8538785822759671 1.8637539801030871 -0.2749999999999999
v -0.7794681068089926 1.5860503050449803 -0.2749999999999999
v -0.996801417724033 1.527816019896913 -0.2749999999999999
v -1.0712118931910075 1.8055196949550198 0.2749999999999999
v -0.996801417724033 1.527816019896913 0.2749999999999999
v -0.8538785822759671 1.8637539801030871 0.2749999999999999
v -0.7794681068089926 1.5860503050449803 0.2749999999999999
v -1.0712118931910075 1.9305196949550198 -0.26874999999999993
v -0.8538785822759671 1.9887539801030871 -0.26874999999999993
v -0.7794681068089926 1.7110503050449803 -0.26874999999999993
v -0.996801417724033 1.652816019896913 -0.26874999999999993
v -1.0712118931910075 1.9305196949550198 0.2687499999999999
v -0.996801417724033 1.652816019896913 0.2687499999999999
v -0.8538785822759671 1.9887539801030871 0.2687499999999999
v -0.7794681068089926 1.7110503050449803 0.2687499999999999
v -0.8999999999999999 2.4625000000000004 0.20000000000000004
v -0.5999999999999999 2.4625000000000004 0.20000000000000004
v -0.6 1.6625 0.20000000000000004
v -0.9 1.6625 0.20000000000000004
v -0.8999999999999999 2.4625000000000004 0.31250000000000006
v -0.9 1.6625 0.31250000000000006
v -0.5999999999999999 2.4625000000000004 0.31250000000000006
v -0.6 1.6625 0.31250000000000006
v -0.8999999999999999 2.4625000000000004 0.375
v -0.5999999999999999 2.4625000000000004 0.375
v -0.6 1.7875000000000003 0.375
v -0.9 1.7875000000000003 0.375
v -0.8999999999999999 2.4625000000000004 0.44999999999999996
v -0.9 1.7875000000000003 0.44999999999999996
v -0.5999999999999999 2.4625000000000004 0.44999999999999996
v -0.6 1.7875000000000003 0.44999999999999996
v -0.9465584812107912 2.448691856334829 0.26212499999999994
v -0.833584352518866 2.4565917769863512 0.26212499999999994
v -0.787318371308075 1.7949574206515226 0.26212499999999994
v -0.9002925000000002 1.7870575000000004 0.26212499999999994
v -0.9465584812107912 2.448691856334829 0.45037499999999997
v -0.9002925000000002 1.7870575000000004 0.45037499999999997
v -0.833584352518866 2.4565917769863512 0.45037499999999997
v -0.787318371308075 1.7949574206515226 0.45037499999999997
v -0.666415647481134 2.4565917769863512 0.26212499999999994
v -0.5534415187892089 2.448691856334829 0.26212499999999994
v -0.5997075000000001 1.7870575000000004 0.26212499999999994
v -0.7126816286919252 1.7949574206515226 0.26212499999999994
v -0.666415647481134 2.4565917769863512 0.45037499999999997
v -0.7126816286919252 1.7949574206515226 0.45037499999999997
v -0.5534415187892089 2.448691856334829 0.45037499999999997
v -0.5997075000000001 1.7870575000000004 0.45037499999999997
v -0.9014043180368814 1.66249958691208 0.1993750000000002
v -0.7502602435582567 1.8136436613907045 0.19937500000000016
v -0.5991161690796322 1.6624995869120798 0.1993750000000001
v -0.7502602435582568 1.5113555124334552 0.19937500000000016
v -0.9014043180368814 1.66249958691208 0.31312500000000015
v -0.7502602435582568 1.5113555124334552 0.31312500000000015
v -0.7502602435582567 1.8136436613907045 0.31312500000000015
v -0.5991161690796322 1.6624995869120798 0.3131250000000001
v -0.9014043180368815 1.78749958691208 0.3743750000000001
v -0.7502602435582568 1.9386436613907048 0.37437500000000007
v -0.5991161690796323 1.78749958691208 0.374375
v -0.7502602435582569 1.6363555124334555 0.37437500000000007
v -0.9014043180368815 1.78749958691208 0.45062500000000005
v -0.7502602435582569 1.6363555124334555 0.45062500000000005
v -0.7502602435582568 1.9386436613907048 0.45062500000000005
v -0.5991161690796323 1.78749958691208 0.450625
v -0.9473006129040684 2.448691941738242 0.261875
v -0.7501945976483182 2.645797956993992 0.26187499999999997
v -0.5530885823925684 2.448691941738242 0.26187499999999997
v -0.7501945976483186 2.251585926482492 0.26187499999999997
v -0.9473006129040684 2.448691941738242 0.450625
v -0.7501945976483186 2.251585926482492 0.45062499999999994
v -0.7501945976483182 2.645797956993992 0.45062499999999994
v -0.5530885823925684 2.448691941738242 0.45062499999999994
vt 0.15625 0.765625
vt 0.21875 0.765625
vt 0.21875 0.84375
vt 0.15625 0.84375
vt 0 0.71875
vt 0.0625 0.71875
vt 0.0625 0.796875
vt 0 0.796875
vt 0.0625 0.71875
vt 0.125 0.71875
vt 0.125 0.796875
vt 0.0625 0.796875
vt 0.21875 0.765625
vt 0.28125 0.765625
vt 0.28125 0.84375
vt 0.21875 0.84375
vt 0.234375 0.765625
vt 0.171875 0.765625
vt 0.171875 0.703125
vt 0.234375 0.703125
vt 0.296875 0.703125
vt 0.234375 0.703125
vt 0.234375 0.765625
vt 0.296875 0.765625
vt 0.375 0.7734375
vt 0.4453125 0.7734375
vt 0.4453125 0.796875
vt 0.375 0.796875
vt 0.328125 0.6484375
vt 0.421875 0.6484375
vt 0.421875 0.671875
vt 0.328125 0.671875
vt 0.375 0.7421875
vt 0.4453125 0.7421875
vt 0.4453125 0.765625
vt 0.375 0.765625
vt 0.125 0.6328125
vt 0.21875 0.6328125
vt 0.21875 0.65625
vt 0.125 0.65625
vt 0.0703125 0.890625
vt 0 0.890625
vt 0 0.796875
vt 0.0703125 0.796875
vt 0.1484375 0.796875
vt 0.078125 0.796875
vt 0.078125 0.890625
vt 0.1484375 0.890625
vt 0.359375 0.8359375
vt 0.4375 0.8359375
vt 0.4375 0.859375
vt 0.359375 0.859375
vt 0.328125 0.9296875
vt 0.4296875 0.9296875
vt 0.4296875 0.953125
vt 0.328125 0.953125
vt 0.359375 0.8046875
vt 0.4375 0.8046875
vt 0.4375 0.828125
vt 0.359375 0.828125
vt 0.328125 0.6796875
vt 0.4296875 0.6796875
vt 0.4296875 0.703125
vt 0.328125 0.703125
vt 0.078125 1
vt 0 1
vt 0 0.8984375
vt 0.078125 0.8984375
vt 0.15625 0.8984375
vt 0.078125 0.8984375
vt 0.078125 1
vt 0.15625 1
vt 0.234375 0.8515625
vt 0.3046875 0.8515625
vt 0.3046875 0.890625
vt 0.234375 0.890625
vt 0.046875 0.6796875
vt 0.1171875 0.6796875
vt 0.1171875 0.71875
vt 0.046875 0.71875
vt 0.28125 0.8046875
vt 0.3515625 0.8046875
vt 0.3515625 0.84375
vt 0.28125 0.84375
vt 0.171875 0.6640625
vt 0.2421875 0.6640625
vt 0.2421875 0.703125
vt 0.171875 0.703125
vt 0.2265625 1
vt 0.15625 1
vt 0.15625 0.9296875
vt 0.2265625 0.9296875
vt 0.2265625 0.8515625
vt 0.15625 0.8515625
vt 0.15625 0.921875
vt 0.2265625 0.921875
vt 0.390625 0.8828125
vt 0.421875 0.8828125
vt 0.421875 0.921875
vt 0.390625 0.921875
vt 0.296875 0.7578125
vt 0.3671875 0.7578125
vt 0.3671875 0.796875
vt 0.296875 0.796875
vt 0.40625 0.9609375
vt 0.4375 0.9609375
vt 0.4375 1
vt 0.40625 1
vt 0.25 0.6640625
vt 0.3203125 0.6640625
vt 0.3203125 0.703125
vt 0.25 0.703125
vt 0.25 0.65625
vt 0.21875 0.65625
vt 0.21875 0.5859375
vt 0.25 0.5859375
vt 0.28125 0.5859375
vt 0.25 0.5859375
vt 0.25 0.65625
vt 0.28125 0.65625
vt 0.421875 0.8828125
vt 0.453125 0.8828125
vt 0.453125 0.921875
vt 0.421875 0.921875
vt 0.296875 0.7109375
vt 0.3671875 0.7109375
vt 0.3671875 0.75
vt 0.296875 0.75
vt 0.234375 0.5390625
vt 0.265625 0.5390625
vt 0.265625 0.578125
vt 0.234375 0.578125
vt 0.3125 0.8671875
vt 0.3828125 0.8671875
vt 0.3828125 0.90625
vt 0.3125 0.90625
vt 0.3125 0.65625
vt 0.28125 0.65625
vt 0.28125 0.5859375
vt 0.3125 0.5859375
vt 0.34375 0.5703125
vt 0.3125 0.5703125
vt 0.3125 0.640625
vt 0.34375 0.640625
vt 0.265625 0.5390625
vt 0.296875 0.5390625
vt 0.296875 0.578125
vt 0.265625 0.578125
vt 0.328125 0.9609375
vt 0.3984375 0.9609375
vt 0.3984375 1
vt 0.328125 1
vt 0.421875 0.6328125
vt 0.453125 0.6328125
vt 0.453125 0.671875
vt 0.421875 0.671875
vt 0.046875 0.6328125
vt 0.1171875 0.6328125
vt 0.1171875 0.671875
vt 0.046875 0.671875
vt 0.375 0.640625
vt 0.34375 0.640625
vt 0.34375 0.5703125
vt 0.375 0.5703125
vt 0.03125 0.5546875
vt 0 0.5546875
vt 0 0.625
vt 0.03125 0.625
vt 0.234375 0.8984375
vt 0.2734375 0.8984375
vt 0.2734375 1
vt 0.234375 1
vt 0.1875 0.5234375
vt 0.203125 0.5234375
vt 0.203125 0.625
vt 0.1875 0.625
vt 0.125 0.6640625
vt 0.1640625 0.6640625
vt 0.1640625 0.765625
vt 0.125 0.765625
vt 0.203125 0.5234375
vt 0.21875 0.5234375
vt 0.21875 0.625
vt 0.203125 0.625
vt 0.3515625 0.859375
vt 0.3125 0.859375
vt 0.3125 0.84375
vt 0.3515625 0.84375
vt 0.3671875 0.90625
vt 0.328125 0.90625
vt 0.328125 0.921875
vt 0.3671875 0.921875
vt 0 0.6328125
vt 0.0390625 0.6328125
vt 0.0390625 0.71875
vt 0 0.71875
vt 0.3125 0.4765625
vt 0.3203125 0.4765625
vt 0.3203125 0.5625
vt 0.3125 0.5625
vt 0.28125 0.9140625
vt 0.3203125 0.9140625
vt 0.3203125 1
vt 0.28125 1
vt 0.328125 0.4765625
vt 0.3359375 0.4765625
vt 0.3359375 0.5625
vt 0.328125 0.5625
vt 0.4765625 0.8125
vt 0.4375 0.8125
vt 0.4375 0.8046875
vt 0.4765625 0.8046875
vt 0.4921875 0.7890625
vt 0.453125 0.7890625
vt 0.453125 0.796875
vt 0.4921875 0.796875
vt 0.375 0.5546875
vt 0.390625 0.5546875
vt 0.390625 0.640625
vt 0.375 0.640625
vt 0.03125 0.5390625
vt 0.0546875 0.5390625
vt 0.0546875 0.625
vt 0.03125 0.625
vt 0.390625 0.5546875
vt 0.40625 0.5546875
vt 0.40625 0.640625
vt 0.390625 0.640625
vt 0.0625 0.5390625
vt 0.0859375 0.5390625
vt 0.0859375 0.625
vt 0.0625 0.625
vt 0.453125 0.59375
vt 0.4375 0.59375
vt 0.4375 0.5703125
vt 0.453125 0.5703125
vt 0.453125 0.5390625
vt 0.4375 0.5390625
vt 0.4375 0.5625
vt 0.453125 0.5625
vt 0.40625 0.5546875
vt 0.421875 0.5546875
vt 0.421875 0.640625
vt 0.40625 0.640625
vt 0.09375 0.5390625
vt 0.1171875 0.5390625
vt 0.1171875 0.625
vt 0.09375 0.625
vt 0.21875 0.4921875
vt 0.234375 0.4921875
vt 0.234375 0.578125
vt 0.21875 0.578125
vt 0.125 0.5390625
vt 0.1484375 0.5390625
vt 0.1484375 0.625
vt 0.125 0.625
vt 0.015625 0.546875
vt 0 0.546875
vt 0 0.5234375
vt 0.015625 0.5234375
vt 0.03125 0.5234375
vt 0.015625 0.5234375
vt 0.015625 0.546875
vt 0.03125 0.546875
vt 0.4375 0.8203125
vt 0.4609375 0.8203125
vt 0.4609375 0.84375
vt 0.4375 0.84375
vt 0.453125 0.9140625
vt 0.46875 0.9140625
vt 0.46875 0.9375
vt 0.453125 0.9375
vt 0.4375 0.7109375
vt 0.4609375 0.7109375
vt 0.4609375 0.734375
vt 0.4375 0.734375
vt 0.453125 0.8828125
vt 0.46875 0.8828125
vt 0.46875 0.90625
vt 0.453125 0.90625
vt 0.3046875 0.90625
vt 0.28125 0.90625
vt 0.28125 0.890625
vt 0.3046875 0.890625
vt 0.4140625 0.859375
vt 0.390625 0.859375
vt 0.390625 0.875
vt 0.4140625 0.875
vt 0.4375 0.6796875
vt 0.4609375 0.6796875
vt 0.4609375 0.703125
vt 0.4375 0.703125
vt 0.40625 0.5234375
vt 0.4140625 0.5234375
vt 0.4140625 0.546875
vt 0.40625 0.546875
vt 0.34375 0.5390625
vt 0.3671875 0.5390625
vt 0.3671875 0.5625
vt 0.34375 0.5625
vt 0.453125 0.5546875
vt 0.4609375 0.5546875
vt 0.4609375 0.578125
vt 0.453125 0.578125
vt 0.4765625 0.75
vt 0.453125 0.75
vt 0.453125 0.7421875
vt 0.4765625 0.7421875
vt 0.4765625 0.5390625
vt 0.453125 0.5390625
vt 0.453125 0.546875
vt 0.4765625 0.546875
vt 0.125 0.765625
vt 0.15625 0.765625
vt 0.15625 0.796875
vt 0.125 0.796875
vt 0.40625 0.703125
vt 0.4296875 0.703125
vt 0.4296875 0.734375
vt 0.40625 0.734375
vt 0.375 0.703125
vt 0.40625 0.703125
vt 0.40625 0.734375
vt 0.375 0.734375
vt 0.4375 0.96875
vt 0.4609375 0.96875
vt 0.4609375 1
vt 0.4375 1
vt 0.46875 0.96875
vt 0.4375 0.96875
vt 0.4375 0.9453125
vt 0.46875 0.9453125
vt 0.46875 0.8515625
vt 0.4375 0.8515625
vt 0.4375 0.875
vt 0.46875 0.875
vn 0 0 -1
vn -1 0 0
vn 0 0 1
vn 1 -1.7080354225002397e-16 0
vn 0 -1 0
vn 0 1 0
vn 0 -0.20791169081775968 -0.9781476007338056
vn -1 0 0
vn 0 0.20791169081775968 0.9781476007338056
vn 1 0 0
vn 0 -0.9781476007338057 0.20791169081775968
vn 0 0.9781476007338055 -0.2079116908177599
vn 0 0.10452846326765317 -0.9945218953682734
vn -1 0 0
vn 0 -0.10452846326765304 0.9945218953682734
vn 1 0 0
vn 0 -0.9945218953682734 -0.10452846326765323
vn 0 0.9945218953682734 0.10452846326765297
vn 0 0 -1
vn -1 0 0
vn 0 0 1
vn 1 -1.9308226515220106e-16 0
vn 0 -1 0
vn 0 1 0
vn 0 0 -1
vn -0.9659258262890683 -0.2588190451025207 0
vn 0 0 1
vn 0.9659258262890683 0.2588190451025205 0
vn 0.25881904510252024 -0.9659258262890685 0
vn -0.2588190451025212 0.9659258262890683 0
vn 0 0 -1
vn -0.9659258262890683 -0.2588190451025205 0
vn 0 0 1
vn 0.9659258262890683 0.2588190451025205 0
vn 0.2588190451025212 -0.9659258262890682 0
vn -0.2588190451025212 0.9659258262890682 0
vn 0 0 -1
vn -0.9659258262890684 -0.2588190451025205 0
vn 0 0 1
vn 0.9659258262890684 0.2588190451025205 0
vn 0.2588190451025212 -0.9659258262890682 0
vn -0.2588190451025212 0.9659258262890682 0
vn 0 0 -1
vn -1 1.3877787807814452e-16 0
vn 0 0 1
vn 1 -1.3877787807814452e-16 0
vn 0 -1 0
vn 0 1 0
vn 0 0 -1
vn -1 1.644774851296528e-16 0
vn 0 0 1
vn 1 -1.644774851296528e-16 0
vn 0 -1 0
vn 0 1 0
vn 0 0 -1
vn -0.9975640502598244 -0.06975647374412523 0
vn 0 0 1
vn 0.9975640502598244 0.06975647374412507 0
vn 0.06975647374412562 -0.9975640502598243 0
vn -0.06975647374412555 0.9975640502598243 0
vn 0 0 -1
vn -0.9975640502598244 0.0697564737441254 0
vn 0 0 1
vn 0.9975640502598244 -0.0697564737441254 0
vn -0.06975647374412562 -0.9975640502598243 0
vn 0.06975647374412562 0.9975640502598243 0
vn -2.7545481731294283e-16 9.181827243764769e-17 -1
vn -0.707106781186548 -0.707106781186547 0
vn 0 0 1
vn 0.7071067811865481 0.7071067811865469 0
vn 0.7071067811865472 -0.7071067811865478 0
vn -0.7071067811865472 0.7071067811865478 0
vn -3.6727308975059047e-16 1.3488952245494514e-31 -1
vn -0.7071067811865476 -0.7071067811865476 0
vn 0 0 1
vn 0.707106781186548 0.7071067811865471 0
vn 0.7071067811865472 -0.7071067811865478 0
vn -0.7071067811865478 0.7071067811865472 0
vn -1.40815467146527e-16 -1.4081546714652668e-16 -1
vn -0.7071067811865476 -0.7071067811865476 0
vn 2.81630934293054e-16 -3.17263932603114e-31 1
vn 0.7071067811865483 0.7071067811865468 0
vn 0.7071067811865468 -0.7071067811865483 0
vn -0.7071067811865476 0.7071067811865476 0
usemtl m_74eac9e0-2e8e-6d78-db75-8eac7280852b
f 1/1/1 2/2/1 3/3/1 4/4/1
f 5/5/2 1/6/2 4/7/2 6/8/2
f 7/9/3 5/10/3 6/11/3 8/12/3
f 2/13/4 7/14/4 8/15/4 3/16/4
f 8/17/5 6/18/5 4/19/5 3/20/5
f 2/21/6 1/22/6 5/23/6 7/24/6
f 9/25/7 10/26/7 11/27/7 12/28/7
f 13/29/8 9/30/8 12/31/8 14/32/8
f 15/33/9 13/34/9 14/35/9 16/36/9
f 10/37/10 15/38/10 16/39/10 11/40/10
f 16/41/11 14/42/11 12/43/11 11/44/11
f 10/45/12 9/46/12 13/47/12 15/48/12
f 17/49/13 18/50/13 19/51/13 20/52/13
f 21/53/14 17/54/14 20/55/14 22/56/14
f 23/57/15 21/58/15 22/59/15 24/60/15
f 18/61/16 23/62/16 24/63/16 19/64/16
f 24/65/17 22/66/17 20/67/17 19/68/17
f 18/69/18 17/70/18 21/71/18 23/72/18
f 25/73/19 26/74/19 27/75/19 28/76/19
f 29/77/20 25/78/20 28/79/20 30/80/20
f 31/81/21 29/82/21 30/83/21 32/84/21
f 26/85/22 31/86/22 32/87/22 27/88/22
f 32/89/23 30/90/23 28/91/23 27/92/23
f 26/93/24 25/94/24 29/95/24 31/96/24
f 33/97/25 34/98/25 35/99/25 36/100/25
f 37/101/26 33/102/26 36/103/26 38/104/26
f 39/105/27 37/106/27 38/107/27 40/108/27
f 34/109/28 39/110/28 40/111/28 35/112/28
f 40/113/29 38/114/29 36/115/29 35/116/29
f 34/117/30 33/118/30 37/119/30 39/120/30
f 41/121/31 42/122/31 43/123/31 44/124/31
f 45/125/32 41/126/32 44/127/32 46/128/32
f 47/129/33 45/130/33 46/131/33 48/132/33
f 42/133/34 47/134/34 48/135/34 43/136/34
f 48/137/35 46/138/35 44/139/35 43/140/35
f 42/141/36 41/142/36 45/143/36 47/144/36
f 49/145/37 50/146/37 51/147/37 52/148/37
f 53/149/38 49/150/38 52/151/38 54/152/38
f 55/153/39 53/154/39 54/155/39 56/156/39
f 50/157/40 55/158/40 56/159/40 51/160/40
f 56/161/41 54/162/41 52/163/41 51/164/41
f 50/165/42 49/166/42 53/167/42 55/168/42
f 57/169/43 58/170/43 59/171/43 60/172/43
f 61/173/44 57/174/44 60/175/44 62/176/44
f 63/177/45 61/178/45 62/179/45 64/180/45
f 58/181/46 63/182/46 64/183/46 59/184/46
f 64/185/47 62/186/47 60/187/47 59/188/47
f 58/189/48 57/190/48 61/191/48 63/192/48
f 65/193/49 66/194/49 67/195/49 68/196/49
f 69/197/50 65/198/50 68/199/50 70/200/50
f 71/201/51 69/202/51 70/203/51 72/204/51
f 66/205/52 71/206/52 72/207/52 67/208/52
f 72/209/53 70/210/53 68/211/53 67/212/53
f 66/213/54 65/214/54 69/215/54 71/216/54
f 73/217/55 74/218/55 75/219/55 76/220/55
f 77/221/56 73/222/56 76/223/56 78/224/56
f 79/225/57 77/226/57 78/227/57 80/228/57
f 74/229/58 79/230/58 80/231/58 75/232/58
f 80/233/59 78/234/59 76/235/59 75/236/59
f 74/237/60 73/238/60 77/239/60 79/240/60
f 81/241/61 82/242/61 83/243/61 84/244/61
f 85/245/62 81/246/62 84/247/62 86/248/62
f 87/249/63 85/250/63 86/251/63 88/252/63
f 82/253/64 87/254/64 88/255/64 83/256/64
f 88/257/65 86/258/65 84/259/65 83/260/65
f 82/261/66 81/262/66 85/263/66 87/264/66
f 89/265/67 90/266/67 91/267/67 92/268/67
f 93/269/68 89/270/68 92/271/68 94/272/68
f 95/273/69 93/274/69 94/275/69 96/276/69
f 90/277/70 95/278/70 96/279/70 91/280/70
f 96/281/71 94/282/71 92/283/71 91/284/71
f 90/285/72 89/286/72 93/287/72 95/288/72
f 97/289/73 98/290/73 99/291/73 100/292/73
f 101/293/74 97/294/74 100/295/74 102/296/74
f 103/297/75 101/298/75 102/299/75 104/300/75
f 98/301/76 103/302/76 104/303/76 99/304/76
f 104/305/77 102/306/77 100/307/77 99/308/77
f 98/309/78 97/310/78 101/311/78 103/312/78
f 105/313/79 106/314/79 107/315/79 108/316/79
f 109/317/80 105/318/80 108/319/80 110/320/80
f 111/321/81 109/322/81 110/323/81 112/324/81
f 106/325/82 111/326/82 112/327/82 107/328/82
f 112/329/83 110/330/83 108/331/83 107/332/83
f 106/333/84 105/334/84 109/335/84 111/336/84
